<?xml version="1.0" encoding="UTF-8" standalone="no"?>
<svg
   width="1360.4539"
   zoomAndPan="magnify"
   viewBox="0 0 1020.3404 114.92968"
   height="153.23958"
   preserveAspectRatio="xMidYMid"
   version="1.0"
   id="svg1273"
   sodipodi:docname="logo.svg"
   inkscape:version="1.2.1 (9c6d41e410, 2022-07-14, custom)"
   xmlns:inkscape="http://www.inkscape.org/namespaces/inkscape"
   xmlns:sodipodi="http://sodipodi.sourceforge.net/DTD/sodipodi-0.dtd"
   xmlns="http://www.w3.org/2000/svg"
   xmlns:svg="http://www.w3.org/2000/svg">
  <sodipodi:namedview
     id="namedview1275"
     pagecolor="#ffffff"
     bordercolor="#666666"
     borderopacity="1.0"
     inkscape:showpageshadow="2"
     inkscape:pageopacity="0.0"
     inkscape:pagecheckerboard="0"
     inkscape:deskcolor="#d1d1d1"
     showgrid="false"
     inkscape:zoom="0.90466667"
     inkscape:cx="685.88799"
     inkscape:cy="77.376566"
     inkscape:window-width="1874"
     inkscape:window-height="999"
     inkscape:window-x="20"
     inkscape:window-y="55"
     inkscape:window-maximized="1"
     inkscape:current-layer="svg1273" />
  <defs
     id="defs1207">
    <g
       id="g1205" />
  </defs>
  <g
     fill="#b7f39d"
     fill-opacity="1"
     id="g1215"
     transform="translate(-48.892349,-129.03884)">
    <g
       transform="translate(37.907974,243.83181)"
       id="g1213">
      <g
         id="g1211">
        <path
           d="m 90.210938,-20.320312 h -44.625 c -2.882813,0 -5.21875,-0.277344 -7.140626,-0.960938 -1.644531,-0.550781 -3.019531,-1.511719 -3.980468,-3.023438 -1.097656,-1.507812 -1.921875,-3.570312 -2.335938,-6.039062 -0.546875,-2.746094 -0.683594,-6.179688 -0.683594,-10.300781 v -67.691409 c 0,-4.39453 -2.746093,-4.80859 -3.847656,-4.80859 H 14.964844 c -1.234375,0 -3.980469,0.41406 -3.980469,4.80859 v 65.359378 c 0,7.6875 0.6875,14.277343 1.921875,19.632812 1.238281,5.492188 3.160156,10.023438 5.90625,13.457031 2.746094,3.570313 6.316406,6.179688 10.710938,7.691407 4.117187,1.507812 9.335937,2.332031 15.375,2.332031 h 45.3125 c 1.238281,0 3.847656,-0.546875 3.847656,-4.804688 v -10.847656 c 0,-4.257813 -2.609375,-4.804687 -3.847656,-4.804687 z m 0,0"
           id="path1209" />
      </g>
    </g>
  </g>
  <g
     fill="#b7f39d"
     fill-opacity="1"
     id="g1223"
     transform="translate(-48.892349,-129.03884)">
    <g
       transform="translate(149.81443,243.83181)"
       id="g1221">
      <g
         id="g1219">
        <path
           d="M 93.507812,-24.578125 H 45.175781 c -2.882812,0 -5.21875,-0.414063 -7.140625,-0.960937 -1.785156,-0.6875 -3.019531,-1.648438 -4.121094,-3.019532 -1.097656,-1.511718 -1.921874,-3.570312 -2.332031,-6.179687 -0.136719,-0.6875 -0.136719,-1.648438 -0.273437,-2.335938 0,0 0.136718,-9.886719 0.273437,-9.886719 h 61.375 c 1.101563,0 3.847657,-0.546874 3.847657,-4.804687 v -10.847656 c 0,-4.257813 -2.746094,-4.667969 -3.847657,-4.667969 l -70.851562,0.136719 c -3.980469,0.273437 -7.414063,2.335937 -9.335938,5.765625 -0.6875,1.101562 -1.234375,2.199218 -1.511719,3.433594 l -0.273437,17.300781 v 0.6875 c 0.136719,6.453125 0.824219,11.945312 1.785156,16.476562 1.234375,5.492188 3.296875,10.023438 5.90625,13.457031 2.746094,3.570313 6.316407,6.042969 10.707031,7.550782 4.257813,1.648437 9.339844,2.335937 15.378907,2.335937 h 48.746093 c 1.234376,0 3.980469,-0.414062 3.980469,-4.667969 v -15.105468 c 0,-4.257813 -2.746093,-4.667969 -3.980469,-4.667969 z m 0.136719,-88.839845 H 14.691406 c -1.097656,0 -3.707031,0.55078 -3.707031,4.94141 v 10.710935 c 0,4.257813 2.609375,4.667969 3.707031,4.667969 l 78.953125,0.140625 c 1.097657,0 3.84375,-0.550781 3.84375,-4.808594 v -10.847655 c 0,-4.25391 -2.746093,-4.80469 -3.84375,-4.80469 z m 0,0"
           id="path1217" />
      </g>
    </g>
  </g>
  <g
     fill="#b7f39d"
     fill-opacity="1"
     id="g1231"
     transform="translate(-48.892349,-129.03884)">
    <g
       transform="translate(265.15361,243.83181)"
       id="g1229">
      <g
         id="g1227">
        <path
           d="M 93.507812,-24.578125 H 45.175781 c -2.882812,0 -5.21875,-0.414063 -7.140625,-0.960937 -1.785156,-0.6875 -3.019531,-1.648438 -4.121094,-3.019532 -1.097656,-1.511718 -1.921874,-3.570312 -2.332031,-6.179687 -0.136719,-0.6875 -0.136719,-1.648438 -0.273437,-2.335938 0,0 0.136718,-9.886719 0.273437,-9.886719 h 61.375 c 1.101563,0 3.847657,-0.546874 3.847657,-4.804687 v -10.847656 c 0,-4.257813 -2.746094,-4.667969 -3.847657,-4.667969 l -70.851562,0.136719 c -3.980469,0.273437 -7.414063,2.335937 -9.335938,5.765625 -0.6875,1.101562 -1.234375,2.199218 -1.511719,3.433594 l -0.273437,17.300781 v 0.6875 c 0.136719,6.453125 0.824219,11.945312 1.785156,16.476562 1.234375,5.492188 3.296875,10.023438 5.90625,13.457031 2.746094,3.570313 6.316407,6.042969 10.707031,7.550782 4.257813,1.648437 9.339844,2.335937 15.378907,2.335937 h 48.746093 c 1.234376,0 3.980469,-0.414062 3.980469,-4.667969 v -15.105468 c 0,-4.257813 -2.746093,-4.667969 -3.980469,-4.667969 z m 0.136719,-88.839845 H 14.691406 c -1.097656,0 -3.707031,0.55078 -3.707031,4.94141 v 10.710935 c 0,4.257813 2.609375,4.667969 3.707031,4.667969 l 78.953125,0.140625 c 1.097657,0 3.84375,-0.550781 3.84375,-4.808594 v -10.847655 c 0,-4.25391 -2.746093,-4.80469 -3.84375,-4.80469 z m 0,0"
           id="path1225" />
      </g>
    </g>
  </g>
  <g
     fill="#b7f39d"
     fill-opacity="1"
     id="g1239"
     transform="translate(-48.892349,-129.03884)">
    <g
       transform="translate(380.49279,243.83181)"
       id="g1237">
      <g
         id="g1235">
        <path
           d="M 105.86719,-113.14453 H 14.964844 c -1.234375,0 -3.980469,0.41406 -3.980469,4.66797 v 10.710935 c 0,4.53125 2.746094,4.945313 3.980469,4.945313 H 50.253906 V -4.667969 C 50.253906,-0.410156 53,0 54.101562,0 h 12.632813 c 1.234375,0 3.84375,-0.410156 3.84375,-4.667969 v -88.152343 h 35.289065 c 1.23437,0 3.98047,-0.414063 3.98047,-4.945313 v -10.710935 c 0,-4.25391 -2.7461,-4.66797 -3.98047,-4.66797 z m 0,0"
           id="path1233" />
      </g>
    </g>
  </g>
  <g
     fill="#b7f39d"
     fill-opacity="1"
     id="g1247"
     transform="translate(-48.892349,-129.03884)">
    <g
       transform="translate(508.18971,243.83181)"
       id="g1245">
      <g
         id="g1243">
        <path
           d="M 77.304688,-67.554688 H 36.113281 c -2.058593,0 -4.667969,-0.824218 -4.667969,-7.554687 v -10.160156 c 0,-2.472657 0.410157,-4.394531 1.097657,-5.765625 0.546875,-0.824219 1.371093,-1.785156 3.707031,-1.785156 h 55.886719 c 1.097656,0 3.84375,-0.414063 3.84375,-4.667969 v -10.988279 c 0,-4.25391 -2.746094,-4.66797 -3.84375,-4.66797 H 32.953125 c -7.550781,0 -13.042969,2.47265 -16.613281,7.55469 -3.570313,4.9414 -5.355469,11.531246 -5.355469,19.49609 v 10.4375 c 0,9.472656 1.921875,17.164062 5.355469,21.96875 4.257812,5.628906 10.574218,6.453125 16.339844,6.453125 h 41.191406 c 2.0625,0 4.808594,0.824219 4.808594,7.550781 V -27.875 c 0,2.472656 -0.414063,4.394531 -1.238282,5.769531 -0.546875,0.824219 -1.371094,1.785157 -3.707031,1.785157 H 15.105469 c -1.238281,0 -3.984375,0.410156 -3.984375,4.667968 V -4.667969 C 11.121094,-0.410156 13.867188,0 15.105469,0 H 77.03125 c 7.550781,0 13.179688,-2.609375 16.75,-7.6875 C 97.214844,-12.632812 99,-19.085938 99,-27.050781 v -12.082031 c 0,-8.925782 -1.785156,-15.929688 -5.355469,-20.871094 -3.707031,-4.945313 -9.199219,-7.550782 -16.339843,-7.550782 z m 0,0"
           id="path1241" />
      </g>
    </g>
  </g>
  <g
     fill="#b7f39d"
     fill-opacity="1"
     id="g1255"
     transform="translate(-48.892349,-129.03884)">
    <g
       transform="translate(625.03928,243.83181)"
       id="g1253">
      <g
         id="g1251">
        <path
           d="M 176.85547,-114.79297 H 161.75 c -1.78516,0 -3.15625,1.10156 -3.98047,3.02344 l -25.95312,82.386718 c -0.13672,0.273437 -0.13672,0.273437 -0.13672,0.273437 l -0.54688,0.136719 c 0,0 -0.14062,-0.136719 -0.14062,-0.273438 l -24.02735,-82.523436 c -0.6875,-1.92188 -2.05859,-3.02344 -3.84375,-3.02344 H 87.605469 c -1.785157,0 -3.160157,1.10156 -3.984375,3.02344 l -25.949219,82.386718 c -0.140625,0.273437 -0.140625,0.273437 -0.140625,0.273437 l -0.546875,0.136719 c 0,0 -0.136719,-0.136719 -0.136719,-0.273438 l -24.03125,-82.523436 c -0.6875,-1.92188 -2.058594,-3.02344 -3.980468,-3.02344 H 14.144531 c -2.199219,0 -2.746093,1.375 -2.886719,2.0625 -0.273437,0.96094 -0.273437,2.05859 0.277344,3.29297 l 28.421875,95.15625 c 0.273438,0.6875 0.6875,1.511719 0.960938,2.0625 C 42.976562,-5.082031 49.707031,0 57.257812,0 c 3.433594,0 6.730469,-0.960938 9.476563,-2.882812 0.820313,-0.414063 1.371094,-0.960938 2.058594,-1.375 1.921875,-1.785157 3.980469,-5.078126 6.039062,-10.160157 l 20.324219,-63.164062 18.94922,63.300781 c 0.27344,0.6875 0.6875,1.511719 0.96094,2.0625 C 117.125,-5.082031 123.85547,0 131.40625,0 c 3.43359,0 6.72656,-0.960938 9.47266,-2.882812 0.82421,-0.414063 1.51171,-0.960938 2.0625,-1.375 2.05859,-1.785157 3.98046,-5.078126 6.03906,-10.160157 l 30.62109,-95.019531 c 0.41016,-1.23438 0.55078,-2.33203 0.27344,-3.29297 -0.13672,-0.82422 -0.82422,-2.0625 -3.01953,-2.0625 z m 0,0"
           id="path1249" />
      </g>
    </g>
  </g>
  <g
     fill="#b7f39d"
     fill-opacity="1"
     id="g1263"
     transform="translate(-48.892349,-129.03884)">
    <g
       transform="translate(823.03817,243.83181)"
       id="g1261">
      <g
         id="g1259">
        <path
           d="m 84.582031,-100.375 c -0.273437,-0.68359 -0.546875,-1.50781 -0.824219,-2.05859 -2.195312,-7.14063 -8.785156,-12.21875 -16.339843,-12.21875 -3.429688,0 -6.726563,0.96093 -9.472657,2.88281 -0.824218,0.41015 -1.511718,0.96094 -2.058593,1.37109 -2.0625,1.78516 -4.121094,5.08203 -6.042969,10.02344 L 11.535156,-5.21875 c -0.414062,1.238281 -0.550781,2.472656 -0.277344,3.296875 0.140626,0.824219 0.824219,2.058594 3.023438,2.058594 h 15.101562 c 1.785157,0 3.160157,-1.097657 3.847657,-2.882813 l 7.824219,-19.636718 H 71.125 c 1.511719,0 2.886719,-0.683594 3.570312,-1.921876 0.824219,-1.097656 0.960938,-2.609374 0.550782,-3.980468 l -4.945313,-12.222656 c -0.683593,-1.644532 -2.195312,-2.746094 -3.980469,-2.746094 H 49.292969 l 17.578125,-44.488282 c 0.136718,-0.273437 0.273437,-0.410156 0.273437,-0.410156 h 0.550781 c 0,0 0,0 0.136719,0.273438 l 34.050779,84.996094 c 0.6875,1.921874 2.0625,3.019531 3.98438,3.019531 h 14.6914 c 2.19532,0 2.7461,-1.371094 3.01954,-2.058594 0.27734,-0.824219 0.13671,-2.058594 -0.41016,-3.296875 z m 0,0"
           id="path1257" />
      </g>
    </g>
  </g>
  <g
     fill="#b7f39d"
     fill-opacity="1"
     id="g1271"
     transform="translate(-48.892349,-129.03884)">
    <g
       transform="translate(964.74055,243.83181)"
       id="g1269">
      <g
         id="g1267">
        <path
           d="m 78.265625,-113.14453 h -63.4375 c -1.097656,0 -3.84375,0.41406 -3.84375,4.80859 v 10.847659 c 0,4.253906 2.746094,4.667969 3.84375,4.667969 h 59.867187 c 3.433594,0 5.90625,0.960937 7.277344,3.019531 1.511719,2.058593 2.199219,5.355469 2.199219,9.886719 0,4.53125 -0.6875,7.828124 -2.199219,9.886718 -1.371094,2.058594 -3.84375,3.019532 -7.277344,3.019532 H 14.828125 c -1.097656,0 -3.84375,0.414062 -3.84375,4.667968 v 57.671875 c 0,4.257813 2.746094,4.804688 3.84375,4.804688 h 12.632813 c 1.097656,0 3.847656,-0.546875 3.847656,-4.804688 v -42.015625 l 46.957031,-0.140625 c 9.339844,0 16.066406,-2.882812 20.1875,-8.648437 4.117185,-5.769532 6.039065,-14.007813 6.039065,-24.855469 v 0.824219 c 0,-10.984375 -1.92188,-19.222656 -6.039065,-24.851564 -4.121094,-5.90625 -10.847656,-8.78906 -20.1875,-8.78906 z m 0,0"
           id="path1265" />
      </g>
    </g>
  </g>
</svg>
